<?xml version="1.0" standalone="no"?>
<!DOCTYPE svg PUBLIC "-//W3C//DTD SVG 20010904//EN"
 "http://www.w3.org/TR/2001/REC-SVG-20010904/DTD/svg10.dtd">
<svg version="1.0" xmlns="http://www.w3.org/2000/svg"
 width="547.000000pt" height="449.000000pt" viewBox="0 0 547.000000 449.000000"
 preserveAspectRatio="xMidYMid meet">

<g transform="translate(0.000000,449.000000) scale(0.100000,-0.100000)"
fill="#000000" stroke="none">
<path d="M2431 4353 c-67 -213 -119 -305 -253 -448 -47 -49 -98 -105 -114
-124 -35 -43 -214 -191 -231 -192 -7 -1 -17 -3 -23 -4 -5 -1 -13 -3 -16 -4 -7
-1 78 -113 135 -177 25 -28 52 -62 60 -77 13 -24 12 -29 -5 -48 -19 -21 -23
-21 -329 -16 -233 4 -327 9 -379 21 -74 17 -105 14 -40 -3 100 -26 194 -33
444 -32 204 0 260 -2 245 -11 -18 -11 -17 -13 18 -28 l38 -17 -68 -6 c-37 -3
-149 -13 -248 -23 -114 -10 -235 -14 -330 -12 -86 3 -129 1 -100 -3 67 -10
341 -10 440 0 44 5 138 15 209 22 125 13 129 13 165 -8 22 -12 57 -51 88 -98
62 -90 159 -197 231 -254 28 -23 54 -41 57 -41 3 0 21 -10 39 -22 l34 -23
-116 -18 c-204 -31 -273 -32 -428 -7 -222 35 -263 22 -321 -103 -27 -59 -28
-69 -27 -198 l0 -137 -39 29 c-47 34 -68 36 -111 9 -44 -26 -78 -66 -104 -122
-46 -99 -22 -169 98 -280 81 -76 161 -128 198 -128 35 0 26 -20 -20 -40 -64
-28 -178 -35 -266 -16 -104 23 -116 30 -246 141 -103 89 -178 106 -299 69
-186 -56 -347 -173 -477 -345 -142 -189 -187 -327 -145 -447 34 -98 71 -148
144 -196 38 -24 51 -28 92 -23 48 6 127 41 164 74 38 33 115 133 139 181 33
65 101 140 143 157 69 29 124 20 223 -36 113 -64 161 -79 285 -86 126 -7 274
20 393 71 46 20 87 36 90 36 26 0 51 -131 34 -178 -29 -85 -302 -442 -337
-442 -18 0 -102 -85 -121 -121 -8 -17 -17 -51 -20 -77 -7 -62 17 -108 77 -148
59 -39 149 -60 564 -130 244 -41 483 -35 652 17 58 18 94 46 121 95 7 13 22
14 113 4 133 -15 254 -3 332 33 39 18 87 56 158 125 l102 100 -5 76 c-6 89
-23 120 -84 151 -30 16 -58 20 -126 19 -49 0 -88 1 -88 3 0 2 8 18 17 36 13
25 17 59 17 147 1 126 -7 155 -65 220 -17 19 -41 46 -53 60 -49 57 -160 152
-245 210 -50 34 -94 67 -97 72 -3 5 4 17 17 26 59 41 101 89 130 148 35 71 32
70 119 32 63 -27 214 -59 281 -59 31 0 73 7 94 15 51 22 57 21 115 -15 48 -30
55 -31 138 -27 130 5 235 60 249 130 l6 30 83 -87 c94 -99 121 -109 194 -73
47 24 79 79 80 136 0 100 -109 353 -230 533 l-58 86 39 49 c31 39 39 57 39 91
0 58 -31 107 -81 127 -52 21 -83 20 -161 -4 -122 -38 -222 -105 -300 -203 -21
-27 -59 -63 -83 -79 -25 -17 -59 -50 -76 -74 -66 -91 -224 -129 -355 -84 -135
47 -224 99 -304 179 -69 68 -79 83 -89 131 -6 29 -16 59 -21 66 -6 7 16 4 57
-9 96 -28 410 -31 493 -4 30 10 71 23 90 29 45 14 177 98 316 201 13 10 45 62
70 115 59 126 60 128 76 124 69 -18 249 -29 483 -31 153 -1 277 0 274 3 -2 3
-99 6 -214 7 -226 2 -407 13 -494 29 -30 5 -55 11 -57 12 -1 2 0 15 3 29 4 21
10 26 26 23 12 -2 16 -1 8 2 -9 4 -1 13 25 25 22 10 45 18 53 19 20 0 -6 30
-27 30 -8 0 -23 7 -32 15 -15 14 -17 32 -13 148 4 112 2 143 -15 204 -39 137
-132 317 -207 401 -40 45 -45 55 -45 98 1 43 16 141 36 225 5 21 -10 11 -75
-52 -116 -112 -117 -113 -225 -78 -170 55 -450 57 -587 4 -34 -13 -159 159
-159 217 0 8 -6 22 -13 32 -11 15 -18 0 -56 -121z m667 -158 c90 -41 138 -89
181 -179 38 -80 67 -182 75 -261 12 -127 -59 -373 -126 -431 -63 -56 -152 -84
-285 -92 -123 -6 -211 20 -294 90 -115 95 -167 207 -176 374 -6 110 0 139 48
237 49 100 147 200 246 251 97 49 235 54 331 11z m374 -109 c59 -49 70 -61
114 -126 96 -141 170 -334 175 -455 5 -149 -25 -325 -77 -445 -24 -54 -44 -77
-44 -50 0 5 -16 28 -36 50 -35 39 -91 62 -200 85 -50 10 -164 -13 -214 -43
-93 -57 -103 -134 -26 -207 56 -54 142 -79 259 -74 l84 4 -33 -22 c-97 -67
-319 -99 -506 -73 -217 29 -368 82 -521 184 -114 76 -267 247 -253 283 3 7 1
13 -5 13 -17 0 -39 67 -39 120 0 57 19 101 52 124 12 9 19 18 16 21 -2 3 -20
-5 -38 -17 -44 -30 -80 -100 -79 -152 l1 -41 11 45 11 45 7 -57 c19 -161 194
-358 419 -472 93 -47 266 -100 375 -114 171 -23 316 -12 440 32 11 4 -5 -6
-35 -23 -117 -64 -269 -87 -463 -71 -164 13 -233 33 -377 108 -97 50 -158 102
-252 212 -46 55 -148 202 -148 215 0 2 10 6 23 8 19 4 19 4 -5 6 -23 1 -39 19
-43 51 0 3 -3 10 -7 16 -18 27 -19 91 -3 138 18 53 25 61 67 89 64 40 93 24
278 -154 98 -94 214 -132 248 -80 l14 21 33 -20 c118 -73 321 -72 472 1 101
48 153 136 188 312 23 119 25 120 45 27 20 -98 52 -166 106 -229 43 -50 86
-71 144 -71 49 0 75 12 91 42 l12 21 -28 -21 c-56 -44 -134 -22 -209 58 -80
86 -108 168 -137 406 -12 99 -8 272 6 307 11 26 28 21 87 -27z m-977 -2708
c70 -65 125 -158 125 -211 0 -37 -35 -163 -48 -171 -4 -2 -9 32 -10 77 -4 103
-17 155 -48 188 -13 14 -69 61 -124 105 -55 43 -99 81 -100 84 0 3 32 1 72 -4
68 -10 75 -13 133 -68z"/>
<path d="M2785 3658 c-15 -12 -34 -36 -41 -55 -12 -28 -12 -38 0 -67 17 -40
42 -56 88 -56 43 0 51 7 78 58 50 96 -42 186 -125 120z"/>
<path d="M3496 3646 c-34 -33 -43 -72 -23 -105 32 -54 107 -33 137 39 30 72
-58 123 -114 66z"/>
<path d="M1167 3309 c7 -7 15 -10 18 -7 3 3 -2 9 -12 12 -14 6 -15 5 -6 -5z"/>
<path d="M4478 3223 c7 -3 16 -2 19 1 4 3 -2 6 -13 5 -11 0 -14 -3 -6 -6z"/>
<path d="M4300 3210 l-45 -7 45 -1 c25 0 68 3 95 8 l50 7 -50 0 c-27 0 -70 -3
-95 -7z"/>
<path d="M4090 3190 l-65 -7 60 0 c33 -1 85 2 115 7 l55 7 -50 0 c-27 0 -79
-3 -115 -7z"/>
<path d="M3848 3173 c34 -2 88 -2 120 0 31 2 3 3 -63 3 -66 0 -92 -1 -57 -3z"/>
</g>
</svg>
